<svg width="402" height="591" viewBox="0 0 402 591" fill="none" xmlns="http://www.w3.org/2000/svg">
<path d="M54.2827 587.425C49.8796 589.368 45.1335 590.414 40.3216 590.502C35.5097 590.59 30.7286 589.718 26.2577 587.936C21.7517 586.226 17.6323 583.633 14.1403 580.311C10.6484 576.989 7.8541 573.004 5.92102 568.589L-45.2734 454.013C-49.2579 445.07 -49.5323 434.911 -46.0364 425.766C-42.5406 416.62 -35.5599 409.234 -26.6258 405.229L98.4277 349.319C106.475 345.726 113.7 340.52 119.655 334.023C125.611 327.526 130.17 319.877 133.052 311.548C135.934 303.219 137.077 294.388 136.41 285.6C135.743 276.812 133.28 268.254 129.175 260.455C128.79 259.726 128.423 258.964 128.08 258.198L76.8801 143.625C72.9129 134.679 72.6469 124.526 76.1404 115.385C79.6339 106.243 86.603 98.8557 95.5255 94.8354L300.161 3.38927L300.597 3.20106C305 1.25818 309.747 0.212118 314.56 0.12398C319.373 0.0358305 324.155 0.907352 328.627 2.68769C333.133 4.39993 337.253 6.9933 340.745 10.3163C344.237 13.6392 347.032 17.625 348.966 22.0406L400.163 136.608C404.159 145.551 404.44 155.714 400.943 164.864C397.447 174.013 390.459 181.399 381.518 185.398L256.448 241.283C248.399 244.878 241.172 250.086 235.216 256.585C229.26 263.084 224.7 270.736 221.819 279.067C218.937 287.398 217.795 296.232 218.464 305.022C219.132 313.812 221.597 322.371 225.705 330.171C226.091 330.906 226.464 331.665 226.807 332.431L278.001 447.006C281.986 455.95 282.26 466.109 278.764 475.254C275.269 484.4 268.288 491.785 259.354 495.791L54.7184 587.237L54.2827 587.425Z" fill="url(#paint0_linear_451_277)" fill-opacity="0.12"/>
<defs>
<linearGradient id="paint0_linear_451_277" x1="90.4718" y1="93.9657" x2="264.418" y2="496.656" gradientUnits="userSpaceOnUse">
<stop stop-color="#1D336B"/>
<stop offset="1" stop-color="#1D336B"/>
</linearGradient>
</defs>
</svg>
