<svg width="525" height="483" viewBox="0 0 525 483" fill="none" xmlns="http://www.w3.org/2000/svg">
<g clip-path="url(#clip0_267_838)">
<path d="M-390.496 0.13006C-398.811 0.0648142 -407.055 1.65753 -414.747 4.81512C-422.44 7.97271 -429.425 12.6318 -435.296 18.5201C-441.271 24.3206 -446.029 31.2545 -449.291 38.9161C-452.553 46.5776 -454.255 54.8129 -454.296 63.1401L-456.996 279.94C-457.188 296.855 -450.664 313.156 -438.853 325.266C-427.042 337.377 -410.911 344.308 -393.996 344.54L-157.346 347.54C-142.12 347.726 -127.094 351.034 -113.197 357.258C-99.3005 363.482 -86.8279 372.49 -76.5509 383.726C-66.2738 394.962 -58.4107 408.186 -53.4476 422.582C-48.4845 436.977 -46.527 452.238 -47.6961 467.42C-47.8061 468.84 -47.8661 470.3 -47.8861 471.75L-50.5961 688.55C-50.7593 705.457 -44.2253 721.742 -32.4212 733.848C-20.6172 745.954 -4.5022 752.897 12.4039 753.16L399.624 758L400.444 758C408.76 758.064 417.006 756.471 424.699 753.314C432.393 750.156 439.381 745.498 445.254 739.61C451.228 733.807 455.985 726.871 459.248 719.208C462.51 711.545 464.212 703.308 464.254 694.98L466.964 478.19C467.175 461.269 460.656 444.956 448.842 432.84C437.028 420.724 420.885 413.796 403.964 413.58L167.304 410.63C152.074 410.443 137.045 407.133 123.146 400.906C109.246 394.68 96.7715 385.668 86.4933 374.428C76.2152 363.188 68.3519 349.959 63.3898 335.56C58.4276 321.16 56.472 305.896 57.6439 290.71C57.7539 289.28 57.8239 287.82 57.8439 286.37L60.5439 69.57C60.7361 52.655 54.2113 36.3544 42.4008 24.2439C30.5902 12.1334 14.4583 5.20192 -2.45615 4.96999L-389.676 0.13006L-390.496 0.13006Z" fill="url(#paint0_linear_267_838)"/>
</g>
<defs>
<linearGradient id="paint0_linear_267_838" x1="4.98434" y1="758.002" x2="4.98428" y2="0.128133" gradientUnits="userSpaceOnUse">
<stop stop-color="#67FF34"/>
<stop offset="1" stop-color="#E3FF00"/>
</linearGradient>
<clipPath id="clip0_267_838">
<rect width="1008.94" height="757.87" fill="white" transform="matrix(1 -8.74228e-08 -8.74228e-08 -1 -484 758)"/>
</clipPath>
</defs>
</svg>
