<svg width="1149" height="1063" viewBox="0 0 1149 1063" fill="none" xmlns="http://www.w3.org/2000/svg">
<path d="M361.579 1035.75C353.971 1039.11 345.771 1040.91 337.458 1041.07C329.144 1041.22 320.884 1039.71 313.159 1036.63C305.374 1033.68 298.257 1029.2 292.224 1023.46C286.19 1017.72 281.363 1010.83 278.023 1003.21L189.573 805.251C182.689 789.799 182.215 772.248 188.255 756.447C194.294 740.646 206.355 727.886 221.791 720.965L437.849 624.368C451.753 618.16 464.236 609.165 474.525 597.94C484.814 586.716 492.692 573.5 497.671 559.11C502.65 544.72 504.624 529.462 503.472 514.278C502.32 499.095 498.065 484.309 490.972 470.835C490.307 469.575 489.673 468.259 489.08 466.936L400.621 268.985C393.767 253.528 393.307 235.988 399.343 220.193C405.379 204.399 417.419 191.635 432.835 184.69L786.389 26.6955L787.142 26.3703C794.751 23.0135 802.952 21.2062 811.267 21.0539C819.582 20.9016 827.844 22.4074 835.571 25.4833C843.356 28.4416 850.474 32.9223 856.507 38.6634C862.541 44.4045 867.37 51.2909 870.711 58.9199L959.166 256.862C966.07 272.312 966.554 289.872 960.513 305.68C954.472 321.487 942.4 334.249 926.952 341.157L710.865 437.712C696.958 443.923 684.473 452.921 674.183 464.149C663.892 475.377 656.014 488.597 651.035 502.991C646.057 517.385 644.084 532.648 645.239 547.834C646.394 563.021 650.651 577.81 657.749 591.286C658.417 592.555 659.06 593.867 659.654 595.19L748.104 793.145C754.988 808.597 755.462 826.149 749.422 841.95C743.382 857.751 731.321 870.511 715.886 877.432L362.331 1035.43L361.579 1035.75Z" fill="url(#paint0_linear_581_314)" fill-opacity="0.12"/>
<defs>
<linearGradient id="paint0_linear_581_314" x1="424.104" y1="183.187" x2="724.636" y2="878.926" gradientUnits="userSpaceOnUse">
<stop stop-color="#1D336B"/>
<stop offset="1" stop-color="#1D336B"/>
</linearGradient>
</defs>
</svg>
