<svg width="680" height="594" viewBox="0 0 680 594" fill="none" xmlns="http://www.w3.org/2000/svg">
<g clip-path="url(#clip0_267_568)">
<path d="M134.061 8.0534C128.782 7.00497 123.347 7.0192 118.074 8.09524C112.801 9.17127 107.796 11.2875 103.35 14.3203C98.8487 17.2847 94.984 21.1171 91.9819 25.5932C88.9798 30.0693 86.9007 35.0992 85.8661 40.3886L57.8944 177.903C55.7237 188.634 57.8981 199.788 63.9406 208.918C69.9831 218.048 79.4003 224.409 90.1264 226.605L240.225 257.171C249.883 259.133 259.035 263.056 267.117 268.696C275.199 274.336 282.038 281.574 287.212 289.962C292.385 298.351 295.783 307.711 297.195 317.465C298.607 327.218 298.004 337.158 295.422 346.669C295.18 347.559 294.965 348.48 294.777 349.399L266.799 486.912C264.647 497.642 266.829 508.787 272.868 517.913C278.907 527.04 288.312 533.405 299.029 535.62L544.637 585.591L545.158 585.69C550.438 586.738 555.873 586.724 561.147 585.648C566.421 584.572 571.428 582.457 575.875 579.425C580.376 576.458 584.241 572.625 587.243 568.148C590.245 563.671 592.325 558.64 593.36 553.35L621.337 415.844C623.52 405.11 621.352 393.95 615.307 384.816C609.263 375.681 599.839 369.322 589.106 367.135L438.996 336.599C429.336 334.636 420.181 330.712 412.098 325.069C404.014 319.427 397.174 312.187 392.001 303.796C386.827 295.405 383.43 286.042 382.019 276.286C380.608 266.529 381.213 256.587 383.797 247.074C384.04 246.179 384.261 245.259 384.45 244.339L412.421 106.825C414.592 96.0942 412.418 84.9401 406.375 75.81C400.333 66.6798 390.915 60.3192 380.189 58.1234L134.582 8.15271L134.061 8.0534Z" fill="url(#paint0_linear_267_568)"/>
<path d="M610.37 266.152C608.104 296.434 578.643 317.029 549.425 308.755L500.554 294.916C477.341 288.343 462.614 265.562 466.15 241.697L474.884 182.751C479.109 154.241 507.328 135.856 535.113 143.51L579.775 155.812C601.891 161.905 616.606 182.794 614.894 205.67L610.37 266.152Z" fill="url(#paint1_linear_267_568)"/>
</g>
<defs>
<linearGradient id="paint0_linear_267_568" x1="293.726" y1="537.8" x2="385.506" y2="55.946" gradientUnits="userSpaceOnUse">
<stop stop-color="#67FF34"/>
<stop offset="1" stop-color="#E3FF00"/>
</linearGradient>
<linearGradient id="paint1_linear_267_568" x1="531.547" y1="313.742" x2="557.27" y2="140.138" gradientUnits="userSpaceOnUse">
<stop stop-color="#67FF34"/>
<stop offset="1" stop-color="#E3FF00"/>
</linearGradient>
<clipPath id="clip0_267_568">
<rect width="598" height="490.515" fill="white" transform="matrix(0.982339 0.18711 0.18711 -0.982339 0 481.852)"/>
</clipPath>
</defs>
</svg>
