<svg width="462" height="428" viewBox="0 0 462 428" fill="none" xmlns="http://www.w3.org/2000/svg">
<g clip-path="url(#clip0_581_364)">
<path d="M-368.496 427.87C-376.811 427.935 -385.055 426.343 -392.747 423.185C-400.44 420.027 -407.425 415.368 -413.296 409.48C-419.271 403.68 -424.029 396.746 -427.291 389.084C-430.553 381.422 -432.255 373.187 -432.296 364.86L-434.996 148.06C-435.188 131.145 -428.664 114.844 -416.853 102.734C-405.042 90.6234 -388.911 83.692 -371.996 83.46L-135.346 80.46C-120.12 80.2738 -105.094 76.9665 -91.1974 70.7425C-77.3004 64.5184 -64.8279 55.51 -54.5508 44.2741C-44.2738 33.0382 -36.4106 19.8137 -31.4476 5.41821C-26.4845 -8.97729 -24.527 -24.2379 -25.6961 -39.42C-25.8061 -40.84 -25.8661 -42.3 -25.8861 -43.75L-28.5961 -260.55C-28.7593 -277.457 -22.2253 -293.742 -10.4212 -305.848C1.38284 -317.954 17.4978 -324.897 34.4039 -325.16L421.624 -330H422.444C430.76 -330.064 439.006 -328.471 446.699 -325.314C454.393 -322.156 461.381 -317.498 467.254 -311.61C473.228 -305.807 477.985 -298.871 481.248 -291.208C484.51 -283.545 486.212 -275.308 486.254 -266.98L488.964 -50.19C489.175 -33.2686 482.656 -16.9563 470.842 -4.84012C459.028 7.27603 442.885 14.2039 425.964 14.42L189.304 17.37C174.074 17.5574 159.045 20.8668 145.146 27.0937C131.246 33.3206 118.772 42.3325 108.493 53.5723C98.2152 64.812 90.352 78.0407 85.3898 92.4404C80.4276 106.84 78.4721 122.105 79.644 137.29C79.7539 138.72 79.8239 140.18 79.844 141.63L82.5439 358.43C82.7362 375.345 76.2114 391.646 64.4008 403.756C52.5903 415.867 36.4584 422.798 19.5439 423.03L-367.676 427.87H-368.496Z" fill="url(#paint0_linear_581_364)"/>
</g>
<defs>
<linearGradient id="paint0_linear_581_364" x1="26.9843" y1="-330.002" x2="26.9843" y2="427.872" gradientUnits="userSpaceOnUse">
<stop stop-color="#67FF34"/>
<stop offset="1" stop-color="#E3FF00"/>
</linearGradient>
<clipPath id="clip0_581_364">
<rect width="923.94" height="757.87" fill="white" transform="translate(-462 -330)"/>
</clipPath>
</defs>
</svg>
