<svg width="897" height="758" viewBox="0 0 897 758" fill="none" xmlns="http://www.w3.org/2000/svg">
<path d="M66.5039 757.87C58.1891 757.935 49.9448 756.343 42.2526 753.185C34.5604 750.027 27.5748 745.368 21.7039 739.48C15.7292 733.68 10.9714 726.746 7.709 719.084C4.44657 711.422 2.74501 703.187 2.70391 694.86L0.0039061 478.06C-0.188347 461.145 6.33645 444.844 18.147 432.734C29.9575 420.623 46.0894 413.692 63.0039 413.46L299.654 410.46C314.88 410.274 329.906 406.967 343.803 400.742C357.7 394.518 370.172 385.51 380.449 374.274C390.726 363.038 398.589 349.814 403.552 335.418C408.515 321.023 410.473 305.762 409.304 290.58C409.194 289.16 409.134 287.7 409.114 286.25L406.404 69.45C406.241 52.5427 412.775 36.2577 424.579 24.152C436.383 12.0462 452.498 5.10344 469.404 4.84004L856.624 4.20648e-05H857.444C865.76 -0.0642841 874.006 1.5288 881.699 4.68627C889.393 7.84375 896.381 12.5023 902.254 18.39C908.228 24.1931 912.985 31.1289 916.248 38.792C919.51 46.455 921.212 54.6916 921.254 63.02L923.964 279.81C924.175 296.731 917.656 313.044 905.842 325.16C894.028 337.276 877.885 344.204 860.964 344.42L624.304 347.37C609.074 347.557 594.045 350.867 580.146 357.094C566.246 363.321 553.772 372.332 543.493 383.572C533.215 394.812 525.352 408.041 520.39 422.44C515.428 436.84 513.472 452.105 514.644 467.29C514.754 468.72 514.824 470.18 514.844 471.63L517.544 688.43C517.736 705.345 511.211 721.646 499.401 733.756C487.59 745.867 471.458 752.798 454.544 753.03L67.3239 757.87H66.5039Z" fill="url(#paint0_linear_581_370)"/>
<defs>
<linearGradient id="paint0_linear_581_370" x1="461.984" y1="-0.00183105" x2="461.984" y2="757.872" gradientUnits="userSpaceOnUse">
<stop stop-color="#67FF34"/>
<stop offset="1" stop-color="#E3FF00"/>
</linearGradient>
</defs>
</svg>
